<?xml version="1.0" encoding="utf-8"?>
<!-- Generator: Adobe Illustrator 25.0.1, SVG Export Plug-In . SVG Version: 6.00 Build 0)  -->
<svg version="1.0"
	 id="svg5207" inkscape:version="0.48.5 r10040" sodipodi:docname="2.svg" xmlns:cc="http://creativecommons.org/ns#" xmlns:dc="http://purl.org/dc/elements/1.1/" xmlns:inkscape="http://www.inkscape.org/namespaces/inkscape" xmlns:rdf="http://www.w3.org/1999/02/22-rdf-syntax-ns#" xmlns:sodipodi="http://sodipodi.sourceforge.net/DTD/sodipodi-0.dtd" xmlns:svg="http://www.w3.org/2000/svg"
	 xmlns="http://www.w3.org/2000/svg" xmlns:xlink="http://www.w3.org/1999/xlink" x="0px" y="0px" viewBox="0 0 342 199"
	 style="enable-background:new 0 0 342 199;" xml:space="preserve">
<style type="text/css">
	.st0{clip-path:url(#SVGID_2_);fill:url(#polygon12402_1_);}
	.st1{clip-path:url(#SVGID_4_);fill:url(#polygon12417_1_);}
	.st2{clip-path:url(#SVGID_6_);fill:url(#polygon12432_1_);}
	.st3{clip-path:url(#SVGID_8_);fill:url(#polygon12447_1_);}
</style>
<sodipodi:namedview  bordercolor="#666666" borderopacity="1.0" fit-margin-bottom="0.5" fit-margin-left="0.5" fit-margin-right="0.5" fit-margin-top="0.5" id="base" inkscape:current-layer="layer1" inkscape:cx="191.42761" inkscape:cy="-9.8787513" inkscape:document-units="px" inkscape:pageopacity="0.0" inkscape:pageshadow="2" inkscape:window-height="1035" inkscape:window-maximized="0" inkscape:window-width="1050" inkscape:window-x="871" inkscape:window-y="45" inkscape:zoom="1.8751938" pagecolor="#ffffff" showgrid="false">
	</sodipodi:namedview>
<g id="layer1" transform="translate(-306.30328,-398.33401)" inkscape:groupmode="layer" inkscape:label="Layer 1">
	<g id="g12385" transform="matrix(2.3400273,0,0,2.3400273,-1217.2565,-827.3403)">
		<path id="path12387" inkscape:connector-curvature="0" d="M687.1,561.4c-0.1,0-0.2,0-0.3,0l-3.9,0.9c-0.4,0.1-0.6,0.5-0.6,0.8
			c0,0.7,0,1.6,0,1.8c0,0.5,0.4,0.8,0.9,0.7c0.9-0.2,1-0.2,1.2-0.3v7.2c0,0.5,0.4,0.9,0.9,0.9h1.6c0.5,0,0.9-0.4,0.9-0.9v-10.3
			C687.8,561.8,687.5,561.5,687.1,561.4"/>
		<g id="g12389">
			<g>
				<defs>
					<path id="SVGID_1_" d="M674,566.9c0-8,6.5-14.5,14.5-14.5s14.5,6.5,14.5,14.5s-6.5,14.5-14.5,14.5S674,574.9,674,566.9
						 M671,566.3c0,9.5,7.7,17.1,17.1,17.1c9.5,0,17.1-7.7,17.1-17.1c0-9.5-7.7-17.1-17.1-17.1C678.7,549.2,671,556.9,671,566.3"/>
				</defs>
				<clipPath id="SVGID_2_">
					<use xlink:href="#SVGID_1_"  style="overflow:visible;"/>
				</clipPath>
				
					<linearGradient id="polygon12402_1_" gradientUnits="userSpaceOnUse" x1="710.2857" y1="562.0945" x2="710.6062" y2="562.0945" gradientTransform="matrix(-212.8344 -131.9628 131.9628 -212.8344 77700.3594 213939.7031)">
					<stop  offset="0" style="stop-color:#DC4C2F"/>
					<stop  offset="1" style="stop-color:#CD2027"/>
				</linearGradient>
				<polygon id="polygon12402" class="st0" points="680.5,533.8 720.7,558.7 695.8,598.8 655.7,574 				"/>
			</g>
		</g>
		<g id="g12404">
			<g>
				<defs>
					<path id="SVGID_3_" d="M678.2,560.8c0.9-1,2-1.8,3.2-2.4c2-3.8,6-6.4,10.6-6.4c6.6,0,11.9,5.3,11.9,11.9
						c0,6.6-5.3,11.9-11.9,11.9c-0.3,0-0.7,0-1,0c-1.3,0.8-2.9,1.4-4.5,1.5c1.5,0.6,3.2,0.9,4.9,0.9c7.5,0,13.6-6.1,13.6-13.6
						c0-1.5-0.2-2.9-0.7-4.2c-0.5-1.5-1.3-2.9-2.2-4.2c-2.5-3.2-6.4-5.3-10.8-5.3C685.1,551,679.9,555.2,678.2,560.8"/>
				</defs>
				<clipPath id="SVGID_4_">
					<use xlink:href="#SVGID_3_"  style="overflow:visible;"/>
				</clipPath>
				
					<linearGradient id="polygon12417_1_" gradientUnits="userSpaceOnUse" x1="715.0167" y1="562.6292" x2="715.3372" y2="562.6292" gradientTransform="matrix(129.9876 151.1246 -151.1246 129.9876 -7233.6685 -180637.1562)">
					<stop  offset="0" style="stop-color:#DC4C2F"/>
					<stop  offset="1" style="stop-color:#CD2027"/>
				</linearGradient>
				<polygon id="polygon12417" class="st1" points="689.6,591.6 664.7,562.7 693.6,537.8 718.4,566.7 				"/>
			</g>
		</g>
		<g id="g12419">
			<g>
				<defs>
					<path id="SVGID_5_" d="M686.5,557.6c1,0.1,2,0.3,2.9,0.7c6,0.2,10.8,5.2,10.8,11.2c0,6.2-5,11.2-11.2,11.2
						c-4.1,0-7.7-2.2-9.6-5.5c-0.9-0.8-1.7-1.7-2.4-2.7c1.1,6,6.4,10.6,12.8,10.6c7.2,0,13-5.8,13-13s-5.8-13-13-13
						C688.6,557.1,687.5,557.3,686.5,557.6"/>
				</defs>
				<clipPath id="SVGID_6_">
					<use xlink:href="#SVGID_5_"  style="overflow:visible;"/>
				</clipPath>
				
					<linearGradient id="polygon12432_1_" gradientUnits="userSpaceOnUse" x1="712.2331" y1="565.446" x2="712.5535" y2="565.446" gradientTransform="matrix(134.33 -134.33 134.33 134.33 -170950.0312 20297.2988)">
					<stop  offset="0" style="stop-color:#DC4C2F"/>
					<stop  offset="1" style="stop-color:#CD2027"/>
				</linearGradient>
				<polygon id="polygon12432" class="st2" points="715.8,570.1 689.9,596 664,570.1 689.9,544.2 				"/>
			</g>
		</g>
		<g id="g12434">
			<g>
				<defs>
					<path id="SVGID_7_" d="M675.6,567.5c0-5.5,4.5-10,10-10s10,4.5,10,10s-4.5,10-10,10S675.6,573,675.6,567.5L675.6,567.5
						 M671.6,568.5c0,7.2,5.8,13,13,13s13-5.8,13-13s-5.8-13-13-13C677.5,555.4,671.6,561.3,671.6,568.5"/>
				</defs>
				<clipPath id="SVGID_8_">
					<use xlink:href="#SVGID_7_"  style="overflow:visible;"/>
				</clipPath>
				
					<linearGradient id="polygon12447_1_" gradientUnits="userSpaceOnUse" x1="709.6121" y1="561.9508" x2="709.9326" y2="561.9508" gradientTransform="matrix(-161.5459 -100.1628 100.1628 -161.5459 59044.0312 162432.8594)">
					<stop  offset="0" style="stop-color:#DC4C2F"/>
					<stop  offset="1" style="stop-color:#CD2027"/>
				</linearGradient>
				<polygon id="polygon12447" class="st3" points="678.9,543.8 709.3,562.7 690.4,593.1 660,574.2 				"/>
			</g>
		</g>
	</g>
	<g id="g12451" transform="matrix(2.3400273,0,0,2.3400273,-1217.2565,-827.3403)">
		<path id="path12453" inkscape:connector-curvature="0" d="M716.7,558.4c1,0,1.9,0.2,2.8,0.5c0.9,0.3,1.7,0.8,2.4,1.5
			s1.2,1.6,1.6,2.7c0.4,1.1,0.6,2.5,0.6,4.1v8.7c0,0.3-0.1,0.4-0.4,0.4h-3.1c-0.3,0-0.4-0.1-0.4-0.4v-8.2c0-1-0.1-1.9-0.3-2.6
			c-0.2-0.7-0.5-1.2-0.8-1.6c-0.4-0.4-0.8-0.7-1.3-0.9s-0.9-0.3-1.4-0.3c-1.2,0-2.1,0.4-2.8,1.3c-0.7,0.9-1.2,2.4-1.2,3.9v8.3
			c0,0.3-0.1,0.4-0.4,0.4h-3.1c-0.3,0-0.4-0.1-0.4-0.4v-16.9c0-0.3,0.1-0.4,0.4-0.4h1.3c0.5,0,1.1,0.1,1.6,0.6
			c0.4,0.4,0.6,0.9,0.6,1.4c0.4-0.5,1-1,1.4-1.2C714.5,558.7,715.7,558.4,716.7,558.4"/>
		<path id="path12455" inkscape:connector-curvature="0" d="M740.8,572.9c0.1,0.1,0.2,0.2,0.2,0.3s0,0.2-0.1,0.4
			c-0.9,1-1.9,1.7-3.2,2.3s-2.5,0.8-3.6,0.8c-1.3,0-2.5-0.2-3.7-0.7s-2.1-1.1-2.9-1.9c-0.8-0.8-1.4-1.8-1.9-2.9
			c-0.5-1.1-0.7-2.4-0.7-3.7c0-1.2,0.2-2.4,0.7-3.5c0.4-1.1,1-2.1,1.8-2.9c0.8-0.8,1.7-1.5,2.7-2s2.1-0.7,3.3-0.7s2.3,0.2,3.3,0.7
			c1,0.4,1.9,1.1,2.7,1.9c0.8,0.8,1.4,1.9,1.8,3.2c0.4,1.3,0.6,2.7,0.6,4.3c0,0.2-0.1,0.4-0.2,0.6c-0.1,0.1-0.3,0.2-0.6,0.2h-11.9
			c0.1,0.5,0.2,0.9,0.6,1.4c0.3,0.4,0.7,0.8,1.2,1.2c0.4,0.3,0.9,0.6,1.5,0.8c0.5,0.2,1.1,0.3,1.6,0.3c1,0,1.8-0.2,2.5-0.6
			c0.7-0.4,1.3-0.8,1.6-1.2c0.2-0.2,0.4-0.2,0.6,0L740.8,572.9L740.8,572.9z M737.8,566c-0.2-1.1-0.6-2-1.3-2.8s-1.8-1.1-2.9-1.1
			c-1.3,0-2.2,0.3-3,1.1s-1.2,1.7-1.4,2.8H737.8L737.8,566z"/>
		<path id="path12457" inkscape:connector-curvature="0" d="M747.3,576.1l-6.8-17.1c0-0.1,0-0.2,0-0.3c0.1-0.1,0.1-0.2,0.2-0.2h3.3
			c0.3,0,0.5,0.1,0.5,0.4l3.6,9.2l4.1-9.3c0.1-0.3,0.3-0.4,0.6-0.4s0.5,0.1,0.6,0.4l4.2,9.3l3.5-9.2c0.1-0.3,0.3-0.4,0.5-0.4h3.3
			c0.1,0,0.2,0.1,0.2,0.2c0.1,0.1,0.1,0.2,0,0.3l-6.6,17.1c-0.1,0.3-0.3,0.4-0.6,0.5c-0.3,0-0.5-0.1-0.7-0.4l-4.4-9.4l-4.4,9.4
			c-0.1,0.3-0.3,0.4-0.6,0.4C747.6,576.6,747.4,576.4,747.3,576.1"/>
		<path id="path12459" inkscape:connector-curvature="0" d="M771.1,576.6c-1,0-1.8-0.1-2.6-0.4c-0.8-0.2-1.4-0.5-2-0.9
			c-0.6-0.3-1.1-0.7-1.5-1s-0.7-0.6-0.9-0.9c-0.1-0.1-0.1-0.1-0.1-0.2c0-0.1,0-0.2,0.1-0.3l1.8-2.1c0.2-0.2,0.4-0.2,0.6,0
			c0.2,0.2,1.4,1.3,3.1,1.9c0.5,0.2,1.1,0.3,1.7,0.3c0.6,0,1.1-0.1,1.5-0.4c0.4-0.3,0.6-0.7,0.6-1.1c0-0.4-0.1-0.7-0.4-1
			c-0.2-0.3-0.5-0.5-0.9-0.6c-0.8-0.4-3.1-1.2-4-1.6c-0.6-0.3-1.1-0.6-1.6-1.1c-0.5-0.4-0.8-0.9-1.1-1.5s-0.4-1.4-0.4-2.2
			s0.2-1.5,0.5-2.2c0.3-0.6,0.7-1.2,1.2-1.6c0.5-0.4,1.3-0.9,2.1-1.1c1.9-0.6,3.4-0.3,4.5,0.1c0.7,0.2,1.3,0.5,1.9,0.9
			c0.5,0.3,1,0.7,1.3,1c0.3,0.4,0.6,0.6,0.8,0.9c0.2,0.2,0.1,0.5-0.1,0.6l-1.9,1.7c-0.2,0.2-0.4,0.1-0.6,0c-0.2-0.2-0.8-0.8-1.4-1.2
			c-0.3-0.2-0.7-0.3-1.1-0.5c-0.4-0.1-0.8-0.2-1.3-0.2c-0.6,0-1,0.2-1.4,0.5c-0.3,0.3-0.5,0.7-0.5,1c0,0.4,0.1,0.7,0.3,0.9
			s0.5,0.4,0.8,0.6c0.9,0.4,3,1,4.1,1.6c0.6,0.3,1.2,0.7,1.7,1.2s0.9,1,1.1,1.6c0.3,0.6,0.4,1.4,0.4,2.3c0,1.7-0.6,2.9-1.7,3.8
			C774.4,576.2,772.9,576.6,771.1,576.6"/>
	</g>
</g>
</svg>
